<?xml version="1.0" encoding="utf-8"?>
<!-- Generator: Adobe Illustrator 24.0.1, SVG Export Plug-In . SVG Version: 6.00 Build 0)  -->
<svg version="1.1" id="Layer_1" xmlns="http://www.w3.org/2000/svg" xmlns:xlink="http://www.w3.org/1999/xlink" x="0px" y="0px"
	 viewBox="0 0 303 303" style="enable-background:new 0 0 303 303;" xml:space="preserve">
<style type="text/css">
	.st0{fill:#158AFF;}
	.st1{fill:#FD7DA1;}
	.st2{fill:#06376C;}
	.st3{fill:#D0D3D8;}
</style>
<path class="st0" d="M118,210.5H75V55.3h71.2c23.1,0,42.2,17.3,44.5,40.2L191,99l-3.6-0.3c-1.4-0.1-2.8-0.2-4.2-0.2H118V210.5z
	 M81,204.5h31V92.6h71.3c0.3,0,0.6,0,0.9,0c-3.5-18.1-19.2-31.3-38-31.3H81V204.5z"/>
<path class="st1" d="M183.3,247.8H112v-43.3h34.2c21.3,0,38.7-17.4,38.7-38.7c0-12-5.4-23.2-14.9-30.5l-3.1-2.4l3.1-2.4
	c9.5-7.4,14.9-18.5,14.9-30.5c0-1.3-0.1-2.6-0.2-3.9l-0.3-3.6l3.6,0.3c22.8,2.4,40,21.5,40,44.4c0,12.7-5.2,24.5-14.5,32.9
	c9.2,8.5,14.5,20.3,14.5,33C228,227.7,207.9,247.8,183.3,247.8z M118,241.8h65.3c21.3,0,38.7-17.4,38.7-38.7c0-12-5.5-23.2-15-30.6
	l-3-2.4l3-2.4c9.5-7.4,14.9-18.5,14.9-30.5c0-18.6-13.1-34.4-31.1-37.9c0,0.2,0,0.5,0,0.7c0,12.7-5.2,24.5-14.4,32.9
	c9.2,8.4,14.4,20.2,14.4,32.9c0,24.6-20.1,44.7-44.7,44.7H118V241.8z"/>
<path class="st2" d="M146.3,210.4H112V92.5h71.4c1.5,0,3.1,0,4.8,0.2l2.4,0.3l0.2,2.4c0.1,1.4,0.2,2.9,0.2,4.4
	c0,12.7-5.2,24.5-14.4,32.9c9.2,8.4,14.4,20.2,14.4,32.9C191,190.3,170.9,210.4,146.3,210.4z M118,204.4h28.3
	c21.3,0,38.7-17.4,38.7-38.7c0-12-5.4-23.2-14.9-30.5l-3.1-2.4l3.1-2.4c9.5-7.4,14.9-18.5,14.9-30.5c0-0.5,0-0.9,0-1.4
	c-0.5,0-1,0-1.6,0H118V204.4z"/>
<g>
	<g>
		<polygon class="st3" points="104,259.7 100,259.7 100,255.7 102,255.7 102,257.7 104,257.7 		"/>
		<path class="st3" d="M102,249.5h-2v-6.3h2V249.5z M102,237h-2v-6.3h2V237z"/>
		<polygon class="st3" points="102,224.4 100,224.4 100,222.4 98,222.4 98,220.4 102,220.4 		"/>
		<path class="st3" d="M91.8,222.4h-6.2v-2h6.2V222.4z M79.4,222.4h-6.2v-2h6.2V222.4z"/>
		<polygon class="st3" points="67,222.4 63,222.4 63,218.4 65,218.4 65,220.4 67,220.4 		"/>
		<path class="st3" d="M65,212.5h-2v-5.9h2V212.5z M65,200.7h-2v-5.9h2V200.7z M65,188.9h-2V183h2V188.9z M65,177.1h-2v-5.9h2V177.1
			z M65,165.3h-2v-5.9h2V165.3z M65,153.5h-2v-5.9h2V153.5z M65,141.7h-2v-5.9h2V141.7z M65,129.9h-2V124h2V129.9z M65,118.1h-2
			v-5.9h2V118.1z M65,106.3h-2v-5.9h2V106.3z M65,94.5h-2v-5.9h2V94.5z M65,82.6h-2v-5.9h2V82.6z M65,70.8h-2v-5.9h2V70.8z M65,59
			h-2v-5.9h2V59z"/>
		<polygon class="st3" points="65,47.3 63,47.3 63,43.3 67,43.3 67,45.3 65,45.3 		"/>
		<path class="st3" d="M195.6,76.1c-0.8-1.7-1.8-3.4-2.8-5.1l1.7-1.1c1,1.7,2,3.5,2.9,5.3L195.6,76.1z M189.5,66.3
			c-1.2-1.5-2.5-3-3.8-4.4l1.4-1.4c1.4,1.4,2.7,3,3.9,4.5L189.5,66.3z M181.4,57.9c-1.5-1.2-3-2.4-4.6-3.5l1.1-1.7
			c1.7,1.1,3.3,2.3,4.8,3.6L181.4,57.9z M171.8,51.5c-1.7-0.9-3.5-1.7-5.3-2.4l0.7-1.9c1.9,0.7,3.7,1.6,5.5,2.5L171.8,51.5z
			 M161,47.3c-1.9-0.5-3.8-0.9-5.7-1.2l0.3-2c2,0.3,3.9,0.8,5.9,1.3L161,47.3z M149.6,45.4c-1.1-0.1-2.2-0.1-3.3-0.1h-2.6v-2h2.6
			c1.1,0,2.3,0,3.4,0.1L149.6,45.4z M137.8,45.3h-5.9v-2h5.9V45.3z M126,45.3h-5.9v-2h5.9V45.3z M114.2,45.3h-5.9v-2h5.9V45.3z
			 M102.4,45.3h-5.9v-2h5.9V45.3z M90.6,45.3h-5.9v-2h5.9V45.3z M78.8,45.3h-5.9v-2h5.9V45.3z"/>
		<path class="st3" d="M202.1,85.8c-0.9-0.3-1.8-0.6-2.8-0.9l-0.5-0.2l-0.2-0.5c-0.3-1-0.6-2-0.9-2.9l1.9-0.6
			c0.3,0.8,0.5,1.6,0.8,2.4c0.8,0.2,1.5,0.5,2.3,0.7L202.1,85.8z"/>
		<path class="st3" d="M233.8,163L232,162c0.9-1.7,1.7-3.5,2.4-5.3l1.9,0.7C235.6,159.3,234.7,161.2,233.8,163z M238.1,151.8
			l-1.9-0.5c0.5-1.8,0.9-3.7,1.2-5.7l2,0.3C239,147.9,238.6,149.9,238.1,151.8z M239.9,140l-2-0.1c0-0.9,0.1-1.8,0.1-2.7
			c0-1,0-2.1-0.1-3.1l2-0.1c0.1,1.1,0.1,2.2,0.1,3.2C240,138.1,240,139,239.9,140z M237.3,128.3c-0.3-1.9-0.7-3.8-1.2-5.6l1.9-0.5
			c0.5,1.9,1,3.9,1.3,5.9L237.3,128.3z M234.2,117.2c-0.7-1.8-1.5-3.6-2.4-5.3l1.8-0.9c0.9,1.8,1.8,3.6,2.5,5.5L234.2,117.2z
			 M228.9,107c-1.1-1.6-2.2-3.2-3.4-4.6l1.5-1.3c1.3,1.5,2.5,3.2,3.6,4.8L228.9,107z M221.6,98.1c-1.4-1.3-2.8-2.6-4.3-3.8l1.2-1.6
			c1.6,1.2,3.1,2.6,4.5,4L221.6,98.1z M212.5,90.9c-1.6-1-3.3-2-5-2.8l0.9-1.8c1.8,0.9,3.5,1.9,5.2,2.9L212.5,90.9z"/>
		<path class="st3" d="M229.1,173.2c-0.5-0.8-1.1-1.6-1.6-2.4l-0.5-0.6l0.5-0.6c0.7-0.9,1.3-1.8,1.7-2.4l1.7,1.1
			c-0.3,0.5-0.8,1.2-1.3,2c0.5,0.6,0.9,1.3,1.3,2L229.1,173.2z"/>
		<path class="st3" d="M183.3,259.7h-0.9v-2h0.9c1.7,0,3.4-0.1,5.1-0.2l0.2,2C186.8,259.6,185,259.7,183.3,259.7z M176.4,259.7h-6
			v-2h6V259.7z M164.4,259.7h-6v-2h6V259.7z M152.3,259.7h-6v-2h6V259.7z M140.2,259.7h-6v-2h6V259.7z M128.2,259.7h-6v-2h6V259.7z
			 M116.1,259.7h-6v-2h6V259.7z M194.6,258.6l-0.4-2c1.9-0.4,3.9-0.9,5.7-1.5l0.6,1.9C198.6,257.6,196.6,258.2,194.6,258.6z
			 M206.3,254.8l-0.8-1.8c1.8-0.8,3.6-1.7,5.3-2.7l1,1.7C210,253.1,208.1,254,206.3,254.8z M216.8,248.7l-1.2-1.6
			c1.6-1.2,3.1-2.4,4.6-3.8l1.4,1.5C220.1,246.2,218.5,247.5,216.8,248.7z M225.9,240.4l-1.5-1.3c1.3-1.5,2.5-3,3.7-4.6l1.6,1.2
			C228.5,237.3,227.2,238.9,225.9,240.4z M232.9,230.4l-1.8-1c1-1.7,1.8-3.5,2.6-5.3l1.8,0.8C234.8,226.8,233.9,228.6,232.9,230.4z
			 M237.7,219.1l-1.9-0.6c0.6-1.9,1-3.8,1.4-5.8l2,0.4C238.7,215.1,238.2,217.1,237.7,219.1z M239.9,207.1l-2-0.1
			c0.1-1.3,0.1-2.6,0.1-3.9c0-0.7,0-1.3,0-2l2-0.1c0,0.7,0,1.4,0,2.1C240,204.3,240,205.7,239.9,207.1z M237.4,195.1
			c-0.3-1.9-0.7-3.9-1.2-5.8l1.9-0.5c0.5,2,0.9,4,1.2,6L237.4,195.1z M234.5,183.7c-0.7-1.8-1.5-3.7-2.4-5.4l1.8-0.9
			c0.9,1.8,1.8,3.7,2.5,5.6L234.5,183.7z"/>
	</g>
</g>
</svg>
